<svg width="667" height="403" viewBox="0 0 667 403" fill="none" xmlns="http://www.w3.org/2000/svg">
<path fill-rule="evenodd" clip-rule="evenodd" d="M653.4 5.24521e-06H12.6L12.4844 2.6226e-06C10.9029 -5.126e-05 9.53864 -9.77516e-05 8.41492 0.0917137C7.22889 0.188617 6.04923 0.402564 4.91409 0.980947C3.22063 1.84381 1.84381 3.22063 0.980946 4.91409C0.402563 6.04923 0.188616 7.22889 0.091713 8.41493C-9.84669e-05 9.53864 -5.19753e-05 10.9029 1.90735e-06 12.4844L4.52995e-06 12.6V135H3V12.6C3 9.23969 3 7.55953 3.65397 6.27606C4.22921 5.14709 5.14709 4.22921 6.27606 3.65397C7.55953 3.00001 9.23969 3.00001 12.6 3.00001H653.4C656.76 3.00001 658.44 3.00001 659.724 3.65397C660.853 4.22921 661.771 5.14709 662.346 6.27606C663 7.55953 663 9.23969 663 12.6V389.4C663 392.76 663 394.44 662.346 395.724C661.771 396.853 660.853 397.771 659.724 398.346C658.44 399 656.76 399 653.4 399H12.6C9.23969 399 7.55953 399 6.27606 398.346C5.14709 397.771 4.22921 396.853 3.65397 395.724C3 394.44 3 392.76 3 389.4V201H4.52995e-06V389.4L1.90735e-06 389.516C-5.19753e-05 391.097 -9.84669e-05 392.461 0.091713 393.585C0.188616 394.771 0.402564 395.951 0.980946 397.086C1.84381 398.779 3.22063 400.156 4.91409 401.019C6.04923 401.597 7.22888 401.811 8.41492 401.908C9.53878 402 10.9033 402 12.485 402H12.6H653.4H653.515C655.097 402 656.461 402 657.585 401.908C658.771 401.811 659.951 401.597 661.086 401.019C662.779 400.156 664.156 398.779 665.019 397.086C665.597 395.951 665.811 394.771 665.908 393.585C666 392.461 666 391.097 666 389.515V389.515V389.4V12.6V12.485V12.4846C666 10.9031 666 9.53869 665.908 8.41492C665.811 7.22889 665.597 6.04923 665.019 4.91409C664.156 3.22063 662.779 1.84381 661.086 0.980947C659.951 0.402565 658.771 0.188617 657.585 0.0917137C656.461 -9.77516e-05 655.097 -5.126e-05 653.516 2.6226e-06L653.4 5.24521e-06Z" fill="#8C8C8C"/>
<path fill-rule="evenodd" clip-rule="evenodd" d="M201 5.21977e-06H198V3.00001V69H201V6.00001V3.00001H204H653.4C656.76 3.00001 658.44 3.00001 659.724 3.65397C660.853 4.22921 661.771 5.14709 662.346 6.27606C663 7.55953 663 9.23969 663 12.6V198V201H660H204H201V198V135H198V201V204H201H663H666V201V12.6V12.485C666 10.9033 666 9.53879 665.908 8.41492C665.811 7.22889 665.597 6.04923 665.019 4.91409C664.156 3.22063 662.779 1.84381 661.086 0.980947C659.951 0.402564 658.771 0.188616 657.585 0.0917136C656.461 -9.77771e-05 655.097 -5.12854e-05 653.516 2.59716e-06L653.4 5.21977e-06H201Z" fill="#8C8C8C"/>
<path fill-rule="evenodd" clip-rule="evenodd" d="M69 264H3.00001H5.21977e-06V267V389.4L2.59716e-06 389.516C-5.12854e-05 391.097 -9.77771e-05 392.461 0.0917136 393.585C0.188616 394.771 0.402564 395.951 0.980947 397.086C1.84381 398.779 3.22063 400.156 4.91409 401.019C6.04923 401.597 7.22889 401.811 8.41492 401.908C9.53862 402 10.9029 402 12.4843 402H12.6H201H204V399V267V264H201H135V267H198H201V270V396V399H198H12.6C9.23969 399 7.55953 399 6.27606 398.346C5.14709 397.771 4.22921 396.853 3.65397 395.724C3.00001 394.44 3.00001 392.76 3.00001 389.4V270V267H6.00001H69V264Z" fill="#8C8C8C"/>
</svg>
